<?xml version="1.0" encoding="UTF-8" standalone="no"?>
<!-- Created with Inkscape (http://www.inkscape.org/) -->

<svg
   xmlns:dc="http://purl.org/dc/elements/1.1/"
   xmlns:cc="http://creativecommons.org/ns#"
   xmlns:rdf="http://www.w3.org/1999/02/22-rdf-syntax-ns#"
   xmlns:svg="http://www.w3.org/2000/svg"
   xmlns="http://www.w3.org/2000/svg"
   xmlns:sodipodi="http://sodipodi.sourceforge.net/DTD/sodipodi-0.dtd"
   xmlns:inkscape="http://www.inkscape.org/namespaces/inkscape"
   width="210mm"
   height="297mm"
   viewBox="0 0 210 297"
   version="1.1"
   id="svg8"
   inkscape:version="0.92.3 (2405546, 2018-03-11)"
   sodipodi:docname="zawadeals.svg">
  <defs
     id="defs2" />
  <sodipodi:namedview
     id="base"
     pagecolor="#ffffff"
     bordercolor="#666666"
     borderopacity="1.0"
     inkscape:pageopacity="0.0"
     inkscape:pageshadow="2"
     inkscape:zoom="1"
     inkscape:cx="-424.28571"
     inkscape:cy="560"
     inkscape:document-units="mm"
     inkscape:current-layer="layer1"
     showgrid="true"
     inkscape:snap-text-baseline="false"
     inkscape:window-width="3200"
     inkscape:window-height="1671"
     inkscape:window-x="0"
     inkscape:window-y="0"
     inkscape:window-maximized="1"
     showguides="true">
    <inkscape:grid
       type="xygrid"
       id="grid862" />
  </sodipodi:namedview>
  <metadata
     id="metadata5">
    <rdf:RDF>
      <cc:Work
         rdf:about="">
        <dc:format>image/svg+xml</dc:format>
        <dc:type
           rdf:resource="http://purl.org/dc/dcmitype/StillImage" />
        <dc:title></dc:title>
      </cc:Work>
    </rdf:RDF>
  </metadata>
  <g
     inkscape:label="Laag 1"
     inkscape:groupmode="layer"
     id="layer1">
    <text
       xml:space="preserve"
       style="font-style:normal;font-variant:normal;font-weight:normal;font-stretch:normal;font-size:10.58333302px;line-height:125%;font-family:'Automatica BRK';-inkscape-font-specification:'Automatica BRK, Normal';text-align:start;letter-spacing:0px;word-spacing:0px;writing-mode:lr-tb;text-anchor:start;fill:#000000;fill-opacity:1;stroke:none;stroke-width:0.26458332px;stroke-linecap:butt;stroke-linejoin:miter;stroke-opacity:1"
       x="38.893749"
       y="81.893745"
       id="text817"><tspan
         sodipodi:role="line"
         id="tspan815"
         x="38.893749"
         y="81.893745"
         style="stroke-width:0.26458332px">ZAWAdeals</tspan></text>
    <text
       xml:space="preserve"
       style="font-style:normal;font-variant:normal;font-weight:normal;font-stretch:normal;font-size:24.40242577px;line-height:125%;font-family:'Automatica BRK';-inkscape-font-specification:'Automatica BRK, Normal';text-align:start;letter-spacing:0px;word-spacing:0px;writing-mode:lr-tb;text-anchor:start;fill:#ff6600;fill-opacity:1;stroke:none;stroke-width:0.61006063px;stroke-linecap:butt;stroke-linejoin:miter;stroke-opacity:1"
       x="18.197769"
       y="112.87269"
       id="text821"
       transform="scale(0.85539534,1.1690501)"><tspan
         sodipodi:role="line"
         id="tspan819"
         x="18.197769"
         y="112.87269"
         style="fill:#ff6600;fill-opacity:1;stroke-width:0.61006063px">ZAWA</tspan></text>
    <text
       xml:space="preserve"
       style="font-style:normal;font-variant:normal;font-weight:normal;font-stretch:normal;font-size:16.5803318px;line-height:125%;font-family:'Automatica BRK';-inkscape-font-specification:'Automatica BRK, Normal';text-align:start;letter-spacing:0px;word-spacing:0px;writing-mode:lr-tb;text-anchor:start;fill:#0000f2;fill-opacity:1;stroke:none;stroke-width:0.41450825px;stroke-linecap:butt;stroke-linejoin:miter;stroke-opacity:1"
       x="65.510788"
       y="200.54565"
       id="text825"
       transform="matrix(0.92437584,-0.09770397,0.11308109,1.0698587,0,0)"><tspan
         sodipodi:role="line"
         id="tspan823"
         x="65.510788"
         y="200.54565"
         style="fill:#0000f2;fill-opacity:1;stroke-width:0.41450825px">deals</tspan></text>
    <text
       xml:space="preserve"
       style="font-style:normal;font-variant:normal;font-weight:normal;font-stretch:normal;font-size:52.66104889px;line-height:125%;font-family:'Automatica BRK';-inkscape-font-specification:'Automatica BRK, Normal';text-align:start;letter-spacing:0px;word-spacing:0px;writing-mode:lr-tb;text-anchor:start;fill:#ff6600;fill-opacity:1;stroke:none;stroke-width:1.31652617px;stroke-linecap:butt;stroke-linejoin:miter;stroke-opacity:1"
       x="18.137926"
       y="190.08611"
       id="text829"
       transform="scale(0.91514384,1.0927244)"><tspan
         sodipodi:role="line"
         id="tspan827"
         x="18.137926"
         y="190.08611"
         style="fill:#ff6600;stroke-width:1.31652617px">Z</tspan></text>
    <text
       xml:space="preserve"
       style="font-style:normal;font-variant:normal;font-weight:normal;font-stretch:normal;font-size:10.58333302px;line-height:125%;font-family:'Automatica BRK';-inkscape-font-specification:'Automatica BRK, Normal';text-align:start;letter-spacing:0px;word-spacing:0px;writing-mode:lr-tb;text-anchor:start;fill:#000000;fill-opacity:1;stroke:none;stroke-width:0.26458332px;stroke-linecap:butt;stroke-linejoin:miter;stroke-opacity:1"
       x="50.006248"
       y="252.02084"
       id="text833"><tspan
         sodipodi:role="line"
         id="tspan831"
         x="50.006248"
         y="252.02084"
         style="stroke-width:0.26458332px">AW</tspan></text>
    <text
       xml:space="preserve"
       style="font-style:normal;font-variant:normal;font-weight:normal;font-stretch:normal;font-size:10.58333302px;line-height:125%;font-family:'Automatica BRK';-inkscape-font-specification:'Automatica BRK, Normal';text-align:start;letter-spacing:0px;word-spacing:0px;writing-mode:lr-tb;text-anchor:start;fill:#000000;fill-opacity:1;stroke:none;stroke-width:0.26458332px;stroke-linecap:butt;stroke-linejoin:miter;stroke-opacity:1"
       x="39.422916"
       y="252.02084"
       id="text837"><tspan
         sodipodi:role="line"
         id="tspan835"
         x="39.422916"
         y="261.97147"
         style="stroke-width:0.26458332px" /></text>
    <text
       xml:space="preserve"
       style="font-style:normal;font-variant:normal;font-weight:normal;font-stretch:normal;font-size:29.69135666px;line-height:125%;font-family:'Automatica BRK';-inkscape-font-specification:'Automatica BRK, Normal';text-align:start;letter-spacing:0px;word-spacing:0px;writing-mode:lr-tb;text-anchor:start;fill:#ff6600;fill-opacity:1;stroke:none;stroke-width:0.74228388px;stroke-linecap:butt;stroke-linejoin:miter;stroke-opacity:1"
       x="32.500801"
       y="200.5705"
       id="text841"
       transform="matrix(1.0019119,-0.09151277,0.10343943,0.98864379,0,0)"><tspan
         sodipodi:role="line"
         id="tspan839"
         x="32.500801"
         y="200.5705"
         style="fill:#ff6600;stroke-width:0.74228388px">AWA</tspan></text>
    <path
       id="text829-6"
       style="font-style:normal;font-variant:normal;font-weight:normal;font-stretch:normal;font-size:51.24440765px;line-height:125%;font-family:'Automatica BRK';-inkscape-font-specification:'Automatica BRK, Normal';text-align:start;letter-spacing:0px;word-spacing:0px;writing-mode:lr-tb;text-anchor:start;fill:#ff6600;fill-opacity:1;stroke:none;stroke-width:1.28111017px;stroke-linecap:butt;stroke-linejoin:miter;stroke-opacity:1"
       d="m 69.444335,169.80932 c 0.01246,0.0174 -0.01513,0.0579 -0.05064,0.10128 0.05013,0.0121 0.100221,0.0242 0.150378,0.0362 0.0898,-0.0417 0.181925,-0.0877 0.278019,-0.13746 z m -12.474691,0.55294 c 0.03479,0.022 0.06941,0.0441 0.104902,0.0651 0.0024,-0.0183 0.0073,-0.0355 0.01603,-0.0506 -0.04032,-0.005 -0.0806,-0.01 -0.120923,-0.0145 z m 15.731339,5.47976 c 0.02148,0.19124 0.0218,0.38377 -0.0052,0.5793 l 0.283702,-0.30283 c -0.09109,-0.0938 -0.181668,-0.18838 -0.278543,-0.27647 z m -12.601815,12.72222 c 0.01003,0.0398 0.09291,0.12253 0.305924,0.37983 -0.106243,-0.12211 -0.19662,-0.26096 -0.305924,-0.37983 z M 48.707098,199.546 c 0.01548,0.12361 0.03424,0.25119 0.05633,0.38344 0.01722,-0.10317 0.03119,-0.20541 0.04703,-0.3085 -0.03535,-0.0234 -0.07002,-0.0481 -0.103355,-0.0749 z m 0.05633,0.38344 c -0.09474,0.56717 -0.166807,1.09323 0.100769,1.26246 0.05768,-0.34742 -0.02593,-0.81449 -0.100769,-1.26246 z m 0.100769,1.26246 c -0.0033,0.0198 -0.0045,0.0415 -0.0088,0.0605 -0.02662,0.11831 -0.242536,0 -0.363803,0 h -1.707387 -1.271241 -1.924431 -1.584399 -1.582333 -1.918229 -0.942578 l -1.584399,1.68672 v 2.34301 c 0,0.25428 0.128479,0.52691 0.385505,0.81752 l 0.915707,0.70796 1.253154,0.54519 1.156518,0.21808 h 31.228585 c 0.610436,0 1.14082,-0.10916 1.590598,-0.32712 0.481926,-0.21795 0.883296,-0.49058 1.20458,-0.81752 0.321283,-0.32693 0.54638,-0.69026 0.674893,-1.08985 0.160642,-0.39959 0.240814,-0.78085 0.240814,-1.14412 0,-0.25428 -0.08017,-0.58123 -0.240814,-0.98082 -0.160641,-0.39959 -0.401669,-0.78085 -0.722952,-1.14411 -0.289156,-0.36327 -0.674595,-0.67228 -1.156521,-0.92656 -0.449778,-0.25429 -0.980162,-0.38137 -1.590598,-0.38137 H 53.896445 c -0.323926,0.29143 -0.846084,0.49299 -1.568378,0.49299 h -3.042709 c -0.132291,0 -0.386982,0.13192 -0.396875,0 -0.0011,-0.0149 0.0011,-0.0321 5.3e-4,-0.0475 -0.0083,-0.004 -0.01717,-0.008 -0.02479,-0.0129 z m 0.02479,0.0129 c 0.05423,0.028 0.116568,0.0475 0.197922,0.0475 0.526428,0 0.331155,-0.63101 0.101803,-1.32291 -0.149434,0.4508 -0.309753,0.92203 -0.299725,1.27537 z m 0.299725,-1.27537 c 0.01172,-0.0354 0.02162,-0.0689 0.03307,-0.10387 -0.02572,-0.01 -0.05065,-0.0207 -0.07596,-0.031 0.0149,0.0452 0.02799,0.0899 0.04289,0.13488 z"
       inkscape:connector-curvature="0" />
  </g>
</svg>
